<?xml version="1.0" encoding="utf-8"?>
<!-- Generator: Adobe Illustrator 21.1.0, SVG Export Plug-In . SVG Version: 6.00 Build 0)  -->
<svg version="1.1" id="Слой_1" xmlns="http://www.w3.org/2000/svg" xmlns:xlink="http://www.w3.org/1999/xlink" x="0px" y="0px"
	 viewBox="0 0 850.4 850.4" style="enable-background:new 0 0 850.4 850.4;" xml:space="preserve">
<style type="text/css">
	.st0{fill:none;stroke:#E18C44;stroke-width:14;stroke-miterlimit:10;}
	.st1{fill:#E18C44;}
</style>
<g>
	<g>
		<path d="M72.9,460.1v-111h33c10.7,0,19.2,2.2,25.5,6.6c7.2,5,10.8,12.6,10.8,22.8c0,9.8-4.2,17.1-12.7,21.9
			c12.2,4,18.3,12.5,18.3,25.6c0,11.4-4.1,20.1-12.2,26c-7.3,5.3-16.9,8-28.9,8H72.9z M120.1,380.8c0-7.9-5.1-10.8-15.3-10.8h-9.8
			v22.3h8C114.3,392.4,120.1,389.2,120.1,380.8z M94.9,411.9v28.4H108c8.2,0,13.6-2.1,16.2-6.4c1.1-1.9,1.7-4.4,1.7-7.6
			c0-9.6-5.9-14.4-17.7-14.4H94.9z"/>
		<path d="M274.7,404.3c0,16.2-5.6,29.9-16.9,41.1c-11.2,11.2-25.1,16.8-41.6,16.8c-16.3,0-30.1-5.6-41.4-17c-11.4-11.3-17-25-17-41
			c0-15.9,5.7-29.5,17.2-40.6c11.5-11.1,25.3-16.7,41.4-16.7c16.2,0,30,5.5,41.3,16.6C269.1,374.7,274.7,388.3,274.7,404.3z
			 M251.9,404.1c0-10-3.4-18.6-10.3-25.8c-6.9-7.2-15.3-10.9-25.3-10.9c-9.9,0-18.3,3.7-25.2,11c-6.9,7.3-10.4,15.9-10.4,25.8
			c0,10,3.4,18.7,10.3,26.2c6.9,7.5,15.3,11.2,25.3,11.2c10.4,0,19-3.7,25.8-11.2C248.7,423.3,251.9,414.5,251.9,404.1z"/>
		<path d="M401.9,404.3c0,16.2-5.6,29.9-16.9,41.1c-11.3,11.2-25.1,16.8-41.6,16.8c-16.3,0-30.1-5.6-41.4-17c-11.4-11.3-17-25-17-41
			c0-15.9,5.7-29.5,17.2-40.6c11.5-11.1,25.3-16.7,41.4-16.7c16.2,0,30,5.5,41.3,16.6C396.3,374.7,401.9,388.3,401.9,404.3z
			 M379.1,404.1c0-10-3.4-18.6-10.3-25.8c-6.9-7.2-15.3-10.9-25.3-10.9c-9.9,0-18.3,3.7-25.2,11c-6.9,7.3-10.4,15.9-10.4,25.8
			c0,10,3.4,18.7,10.3,26.2c6.9,7.5,15.3,11.2,25.3,11.2c10.4,0,19-3.7,25.8-11.2C375.8,423.3,379.1,414.5,379.1,404.1z"/>
		<path d="M534.4,349.1v111h-21.7v-62.7c0-2.5,0.2-6.1,0.5-10.9s0.5-8.3,0.5-10.7h-0.3l-30,84.3H468l-30-84.3h-0.3
			c0,2.4,0.2,5.9,0.5,10.7s0.5,8.4,0.5,10.9v62.7h-21.7v-111h31.3l27.4,82.4l27.4-82.4H534.4z"/>
	</g>
</g>
<path class="st0" d="M235.9,341.8c0,0,0.1-21.7,33.9-20.4c36.9,1.4,25.1-31.3,25.1-31.3"/>
<ellipse transform="matrix(0.8778 -0.4791 0.4791 0.8778 -167.7067 152.2666)" cx="214.5" cy="404.8" rx="58.4" ry="58.4"/>
<rect x="219.9" y="338.3" transform="matrix(0.9594 0.2819 -0.2819 0.9594 106.9213 -51.9125)" width="28" height="14.7"/>
<polygon class="st1" points="299.8,284.1 316.7,293 294.8,290.7 282.2,302.9 286.2,290.2 271.9,289.5 285.1,282.7 269.3,267.3 
	289.7,275.2 299.5,253.2 298.1,275.5 315.6,267.2 "/>
<g>
	<path class="st1" d="M72.9,588.8v-111h32.9c10.7,0,19.2,2.2,25.4,6.6c7.2,5,10.7,12.6,10.7,22.8c0,9.8-4.2,17.1-12.6,21.9
		c12.1,4,18.2,12.5,18.2,25.6c0,11.4-4,20.1-12.1,26c-7.3,5.3-16.9,8-28.8,8H72.9z M119.9,509.6c0-7.9-5.1-10.8-15.3-10.8h-9.8v22.3
		h7.9C114.2,521.1,119.9,517.9,119.9,509.6z M94.8,540.6V569h13.1c8.2,0,13.6-2.1,16.2-6.4c1.1-1.9,1.7-4.4,1.7-7.6
		c0-9.6-5.9-14.4-17.6-14.4H94.8z"/>
	<path class="st1" d="M274.1,533.1c0,16.2-5.6,29.9-16.8,41.1c-11.2,11.2-25,16.8-41.4,16.8c-16.2,0-30-5.6-41.3-17
		c-11.3-11.3-17-25-17-41c0-15.9,5.7-29.5,17.1-40.6c11.4-11.1,25.2-16.7,41.3-16.7c16.2,0,29.9,5.5,41.2,16.6
		C268.5,503.5,274.1,517,274.1,533.1z M251.4,532.9c0-10-3.4-18.6-10.3-25.8c-6.9-7.2-15.3-10.9-25.2-10.9c-9.9,0-18.2,3.7-25.2,11
		c-6.9,7.3-10.4,15.9-10.4,25.8c0,10,3.4,18.7,10.3,26.2c6.9,7.5,15.3,11.2,25.2,11.2c10.4,0,18.9-3.7,25.7-11.2
		C248.1,552.1,251.4,543.3,251.4,532.9z"/>
	<path class="st1" d="M400.9,533.1c0,16.2-5.6,29.9-16.8,41.1c-11.2,11.2-25,16.8-41.4,16.8c-16.2,0-30-5.6-41.3-17
		c-11.3-11.3-17-25-17-41c0-15.9,5.7-29.5,17.1-40.6c11.4-11.1,25.2-16.7,41.3-16.7c16.2,0,29.9,5.5,41.2,16.6
		C395.2,503.5,400.9,517,400.9,533.1z M378.1,532.9c0-10-3.4-18.6-10.3-25.8c-6.9-7.2-15.3-10.9-25.2-10.9c-9.9,0-18.2,3.7-25.2,11
		c-6.9,7.3-10.4,15.9-10.4,25.8c0,10,3.4,18.7,10.3,26.2c6.9,7.5,15.3,11.2,25.2,11.2c10.4,0,18.9-3.7,25.7-11.2
		C374.9,552.1,378.1,543.3,378.1,532.9z"/>
	<path class="st1" d="M502.3,477.9L460,531.6l42.9,57.2h-27l-37.6-52.3v52.3H416v-111h22.3v50.5l39.2-50.5H502.3z"/>
	<path class="st1" d="M534.8,588.8h-22.6v-111h22.6V588.8z"/>
	<path class="st1" d="M645.9,588.8h-20.2l-49.7-77.2l0.6,77.2h-21.5v-111h20.9l49.1,76.7l-0.5-76.7h21.3V588.8z"/>
	<path class="st1" d="M777.9,529.2c0,17.7-5.2,32.3-15.7,43.8c-10.9,12-25.2,18-42.8,18c-16.3,0-30.1-5.7-41.4-17
		c-11.3-11.4-17-25.1-17-41.2c0-16.2,5.8-29.8,17.3-40.7c11.5-10.9,25.5-16.3,41.9-16.3c11.8,0,22.5,3,31.9,9.1
		c10,6.3,16.9,14.8,20.7,25.6h-25.2c-6.5-9.5-16.6-14.2-28.3-14.2c-10,0-18.4,3.6-25.3,10.7c-6.9,7.1-10.4,15.7-10.4,25.7
		c0,10.4,3.3,19.3,10,26.8c6.7,7.5,15.2,11.2,25.6,11.2c15.5,0,26.4-7.4,32.7-22.3h-42.2v-19.1H777.9z"/>
</g>
</svg>
